<svg width="32" height="32" viewBox="0 0 32 32" fill="none" xmlns="http://www.w3.org/2000/svg">
<circle cx="16" cy="16" r="15.5" fill="black" stroke="white"/>
<g clip-path="url(#clip0)">
<path d="M24 11.2176C22.9935 11.264 23.0155 11.2602 22.9017 11.2698L23.4978 9.56749C23.4978 9.56749 21.6372 10.2519 21.1655 10.3744C19.9268 9.26097 18.0854 9.21178 16.769 10.0209C15.691 10.6836 15.1124 11.8216 15.3054 13.1518C13.2074 12.8607 11.4397 11.8662 10.0441 10.1897L9.60266 9.65953L9.27283 10.2652C8.85596 11.0306 8.71753 11.9058 8.88293 12.7294C8.95081 13.0672 9.06616 13.3895 9.22595 13.6913L8.84729 13.5445L8.80237 14.1772C8.75684 14.8199 8.97083 15.5702 9.37488 16.1839C9.48865 16.3568 9.63513 16.5466 9.8208 16.7339L9.62512 16.7038L9.86389 17.4288C10.1777 18.3813 10.8296 19.1183 11.6755 19.5279C10.8307 19.8865 10.1482 20.1152 9.02637 20.4842L8 20.8216L8.948 21.34C9.30945 21.5376 10.5867 22.1976 11.8486 22.3956C14.6538 22.8356 17.8121 22.4773 19.9384 20.5624C21.7292 18.9495 22.3169 16.6551 22.1948 14.2676C22.1764 13.9061 22.2754 13.5611 22.4736 13.2964C22.8707 12.7662 23.9976 11.2212 24 11.2176ZM21.724 12.7349C21.3948 13.1744 21.2299 13.7358 21.2594 14.3154C21.3826 16.7237 20.7273 18.5914 19.3116 19.8663C17.658 21.3557 14.9906 21.9403 11.9938 21.4702C11.451 21.3851 10.8901 21.1946 10.4259 21.0043C11.3665 20.6807 12.0928 20.3922 13.2657 19.837L14.9032 19.062L13.0953 18.9463C12.2294 18.8909 11.5083 18.4712 11.0651 17.7898C11.3004 17.7761 11.5273 17.738 11.7533 17.675L13.4775 17.1948L11.7389 16.769C10.894 16.5621 10.4125 16.0566 10.1572 15.6689C9.98962 15.4142 9.88013 15.1532 9.81445 14.9126C9.98877 14.9593 10.192 14.9927 10.5198 15.0251L12.129 15.1843L10.854 14.1897C9.9353 13.4731 9.56714 12.3966 9.83704 11.3617C12.7042 14.3356 16.0707 14.112 16.4095 14.1907C16.335 13.4662 16.333 13.4645 16.3135 13.3955C15.8795 11.8614 16.8306 11.0825 17.2595 10.8188C18.1555 10.2682 19.5778 10.1852 20.5629 11.0924C20.7756 11.2882 21.0634 11.3652 21.3326 11.2983C21.5743 11.2383 21.7727 11.1747 21.9669 11.1055L21.5626 12.26L22.0787 12.2604C21.9813 12.391 21.8645 12.5474 21.724 12.7349Z" fill="white"/>
</g>
<defs>
<clipPath id="clip0">
<rect width="16" height="16" fill="white" transform="translate(8 8)"/>
</clipPath>
</defs>
</svg>
