<svg width="63" height="72" viewBox="0 0 63 72" fill="none" xmlns="http://www.w3.org/2000/svg">
<mask id="path-1-inside-1" fill="white">
<path fill-rule="evenodd" clip-rule="evenodd" d="M16 17C16 16.4477 16.4477 16 17 16H25H28.75H32C32.5523 16 33 16.4477 33 17V55C33 55.5523 32.5523 56 32 56H26C25.4477 56 25 55.5523 25 55V31C25 30.4477 24.5523 30 24 30H17C16.4477 30 16 29.5523 16 29V17ZM21 20C20.4477 20 20 20.4477 20 21V25C20 25.5523 20.4477 26 21 26H28C28.5523 26 29 25.5523 29 25V21C29 20.4477 28.5523 20 28 20H21Z"/>
</mask>
<path d="M25 15H17V17H25V15ZM28.75 15H25V17H28.75V15ZM32 15H28.75V17H32V15ZM34 55V17H32V55H34ZM26 57H32V55H26V57ZM24 31V55H26V31H24ZM17 31H24V29H17V31ZM15 17V29H17V17H15ZM21 21V19C19.8954 19 19 19.8954 19 21H21ZM21 25V21H19V25H21ZM21 25H19C19 26.1046 19.8954 27 21 27V25ZM28 25H21V27H28V25ZM28 25V27C29.1046 27 30 26.1046 30 25H28ZM28 21V25H30V21H28ZM28 21H30C30 19.8954 29.1046 19 28 19V21ZM21 21H28V19H21V21ZM17 29L17 29H15C15 30.1046 15.8954 31 17 31V29ZM26 55V55H24C24 56.1046 24.8954 57 26 57V55ZM32 55V55V57C33.1046 57 34 56.1046 34 55H32ZM32 17L32 17H34C34 15.8954 33.1046 15 32 15V17ZM26 31C26 29.8954 25.1046 29 24 29V31L24 31H26ZM17 15C15.8954 15 15 15.8954 15 17H17L17 17V15Z" fill="white" mask="url(#path-1-inside-1)"/>
<mask id="path-3-inside-2" fill="white">
<path d="M37 17C37 16.4477 37.4477 16 38 16H46C46.5523 16 47 16.4477 47 17V55C47 55.5523 46.5523 56 46 56H38C37.4477 56 37 55.5523 37 55V17Z"/>
</mask>
<path d="M37 17C37 16.4477 37.4477 16 38 16H46C46.5523 16 47 16.4477 47 17V55C47 55.5523 46.5523 56 46 56H38C37.4477 56 37 55.5523 37 55V17Z" fill="white"/>
<path d="M38 17H46V15H38V17ZM46 17V55H48V17H46ZM46 55H38V57H46V55ZM38 55V17H36V55H38ZM38 55L38 55H36C36 56.1046 36.8954 57 38 57V55ZM46 55L46 55V57C47.1046 57 48 56.1046 48 55H46ZM46 17L46 17H48C48 15.8954 47.1046 15 46 15V17ZM38 15C36.8954 15 36 15.8954 36 17H38L38 17V15Z" fill="white" mask="url(#path-3-inside-2)"/>
</svg>
