<svg width="32" height="32" viewBox="0 0 32 32" fill="none" xmlns="http://www.w3.org/2000/svg">
<circle cx="16" cy="16" r="15.5" fill="black" stroke="white"/>
<g clip-path="url(#clip0)">
<path d="M17.0802 23.9688H14.5129C14.0841 23.9688 13.7353 23.6206 13.7353 23.1926V17.4133H12.2375C11.8087 17.4133 11.4598 17.0651 11.4598 16.6372V14.1608C11.4598 13.7328 11.8087 13.3846 12.2375 13.3846H13.7353V12.1445C13.7353 10.9149 14.1221 9.86877 14.8539 9.11938C15.589 8.36658 16.6163 7.96875 17.8247 7.96875L19.7826 7.97192C20.2107 7.97266 20.5589 8.3208 20.5589 8.74805V11.0474C20.5589 11.4753 20.2102 11.8235 19.7815 11.8235L18.4633 11.824C18.0612 11.824 17.9589 11.9044 17.937 11.9291C17.9009 11.97 17.858 12.0856 17.858 12.4048V13.3845H19.6824C19.8198 13.3845 19.9529 13.4183 20.0672 13.4821C20.3139 13.6196 20.4673 13.8798 20.4673 14.1609L20.4663 16.6373C20.4663 17.0651 20.1175 17.4132 19.6887 17.4132H17.858V23.1926C17.858 23.6206 17.509 23.9688 17.0802 23.9688ZM14.6751 23.0308H16.918V16.9934C16.918 16.7076 17.151 16.4752 17.4372 16.4752H19.5265L19.5274 14.3226H17.4371C17.1509 14.3226 16.918 14.0902 16.918 13.8044V12.4048C16.918 12.0383 16.9553 11.6216 17.2325 11.3083C17.5673 10.9297 18.0951 10.886 18.463 10.886L19.6191 10.8855V8.90967L17.824 8.90674C15.8819 8.90674 14.6751 10.1475 14.6751 12.1445V13.8044C14.6751 14.0901 14.4422 14.3226 14.156 14.3226H12.3997V16.4752H14.156C14.4422 16.4752 14.6751 16.7076 14.6751 16.9934V23.0308ZM19.7808 8.90991H19.7809H19.7808Z" fill="white"/>
</g>
<defs>
<clipPath id="clip0">
<rect width="16" height="16" fill="white" transform="translate(8 8)"/>
</clipPath>
</defs>
</svg>
